<svg width="68" height="64" viewBox="0 0 68 64" fill="none" xmlns="http://www.w3.org/2000/svg">
<path d="M28.1644 20C23.6622 20 20 23.2729 20 27.2937V37.7104C20 41.7302 23.6656 45 28.1689 45H39.8356C44.3378 45 48 41.7271 48 37.7063V27.2896C48 23.2698 44.3344 20 39.8311 20H28.1644ZM42.1667 24.1667C42.8107 24.1667 43.3333 24.6333 43.3333 25.2083C43.3333 25.7833 42.8107 26.25 42.1667 26.25C41.5227 26.25 41 25.7833 41 25.2083C41 24.6333 41.5227 24.1667 42.1667 24.1667ZM34 26.25C37.8605 26.25 41 29.0531 41 32.5C41 35.9469 37.8605 38.75 34 38.75C30.1395 38.75 27 35.9469 27 32.5C27 29.0531 30.1395 26.25 34 26.25ZM34 28.3333C32.7623 28.3333 31.5753 28.7723 30.7002 29.5537C29.825 30.3351 29.3333 31.3949 29.3333 32.5C29.3333 33.6051 29.825 34.6649 30.7002 35.4463C31.5753 36.2277 32.7623 36.6667 34 36.6667C35.2377 36.6667 36.4247 36.2277 37.2998 35.4463C38.175 34.6649 38.6667 33.6051 38.6667 32.5C38.6667 31.3949 38.175 30.3351 37.2998 29.5537C36.4247 28.7723 35.2377 28.3333 34 28.3333V28.3333Z" fill="white"/>
<rect x="0.5" y="0.5" width="67" height="63" rx="4.5" stroke="#2C2C2C" stroke-dasharray="10 5"/>
</svg>
