<svg width="73" height="73" viewBox="0 0 73 73" fill="none" xmlns="http://www.w3.org/2000/svg">
<path d="M30 0C13.467 0 0 13.467 0 30C0 46.533 13.467 60 30 60C37.1895 60 43.7922 57.447 48.9668 53.209L66.8789 71.1211C67.1553 71.409 67.4864 71.6389 67.8528 71.7972C68.2192 71.9556 68.6135 72.0393 69.0126 72.0433C69.4118 72.0474 69.8077 71.9718 70.1772 71.8209C70.5468 71.67 70.8825 71.447 71.1647 71.1647C71.447 70.8825 71.67 70.5468 71.8209 70.1772C71.9718 69.8077 72.0474 69.4118 72.0433 69.0126C72.0393 68.6135 71.9556 68.2192 71.7972 67.8528C71.6389 67.4864 71.409 67.1553 71.1211 66.8789L53.209 48.9668C57.447 43.7922 60 37.1895 60 30C60 13.467 46.533 0 30 0ZM30 6C43.2904 6 54 16.7096 54 30C54 43.2904 43.2904 54 30 54C16.7096 54 6 43.2904 6 30C6 16.7096 16.7096 6 30 6Z" fill="black"/>
</svg>
