<svg width="79" height="67" viewBox="0 0 79 67" fill="none" xmlns="http://www.w3.org/2000/svg">
<path d="M59 23.3143C57.5646 23.8775 56.0226 24.2565 54.4042 24.4275C56.0571 23.5528 57.3246 22.168 57.9215 20.5168C56.3766 21.3265 54.6637 21.9149 52.8397 22.2329C51.3803 20.8587 49.3014 20 47.0005 20C42.5816 20 38.9998 23.1659 38.9998 27.0686C38.9998 27.6225 39.0718 28.1632 39.2068 28.6787C32.5575 28.3845 26.6627 25.5698 22.7149 21.2921C22.0279 22.3363 21.6334 23.5502 21.6334 24.8476C21.6334 27.2992 23.0449 29.4632 25.1913 30.7301C23.8804 30.693 22.6459 30.3749 21.5674 29.8462C21.5674 29.8767 21.5674 29.9045 21.5674 29.935C21.5674 33.3606 24.3243 36.2177 27.9857 36.8657C27.3152 37.0274 26.6072 37.1135 25.8768 37.1135C25.3623 37.1135 24.8598 37.0685 24.3723 36.9876C25.3908 39.7957 28.3457 41.8405 31.8465 41.8975C29.1091 43.7938 25.6593 44.9242 21.9094 44.9242C21.2645 44.9242 20.627 44.8911 20 44.8248C23.5414 46.8299 27.7457 48 32.265 48C46.9825 48 55.0282 37.2288 55.0282 27.8875C55.0282 27.5814 55.0207 27.2766 55.0057 26.9732C56.5701 25.9753 57.9275 24.7309 59 23.3143Z" fill="#F5F5F5"/>
<rect x="0.5" y="0.5" width="78" height="66" rx="4.5" stroke="#2C2C2C" stroke-dasharray="10 5"/>
</svg>
